<svg xmlns="http://www.w3.org/2000/svg" xml:space="preserve" width="2000" height="1500" data-id="lg_lonmIT7ryYs3Rfg9th" data-version="1" viewBox="0 0 2000 1500"><path fill="#561f01" stroke="transparent" d="M0 0h2000v1500H0z"/><g data-padding="20"><path fill="#bbecd1" d="M1462.835 996.138a82.473 82.473 0 0 0-110.322-34.275l-66.407 35.346V790.49a32.133 32.133 0 0 0-32.132-32.133h-119.962V532.36c117.83-12.106 208.988-108.735 214.217-227.07v-18.21a32.133 32.133 0 0 0-33.204-33.203h-16.066c-124.075 5.47-223.247 105.114-228.14 229.212v38.559a224.93 224.93 0 0 0-154.237-69.62h-28.92a32.13 32.13 0 0 0-23.563 9.639 32.13 32.13 0 0 0-9.64 23.564v27.848c5.273 116.611 97.705 210.427 214.217 217.43v27.848h-117.82a32.133 32.133 0 0 0-32.132 32.133v41.772l-36.417-4.284a92.1 92.1 0 0 0-55.696 7.498L545.987 967.219a32.133 32.133 0 0 0-16.066 40.701l85.686 208.862a32.133 32.133 0 0 0 44.986 16.066l137.099-72.834 323.467 82.474a92.1 92.1 0 0 0 69.62-7.498l239.924-129.601a80.33 80.33 0 0 0 32.132-108.18Zm-240.994 34.275-50.34 25.706-179.943-33.204v-2.142h134.957a81.4 81.4 0 0 0 80.33-73.905 81.4 81.4 0 0 0-68.549-85.686L982.99 839.76v-17.138h238.852Z"/><path fill="transparent" stroke="transparent" stroke-width="6.215" d="M465.47 187.5h1069.06v1125H465.47z"/></g></svg>